<?xml version="1.0" encoding="utf-8"?>
<!-- Generator: Adobe Illustrator 16.0.0, SVG Export Plug-In . SVG Version: 6.00 Build 0)  -->
<!DOCTYPE svg PUBLIC "-//W3C//DTD SVG 1.1//EN" "http://www.w3.org/Graphics/SVG/1.1/DTD/svg11.dtd">
<svg version="1.1" xmlns="http://www.w3.org/2000/svg" xmlns:xlink="http://www.w3.org/1999/xlink" x="0px" y="0px" width="2620px"
	 height="6445px" viewBox="0 0 2620 6445" enable-background="new 0 0 2620 6445" xml:space="preserve">
<pattern  x="401" width="110" height="150" patternUnits="userSpaceOnUse" id="Dot_grid_hex" viewBox="2 -152 110 150" overflow="visible">
	<g>
		<polygon fill="none" points="2,-152 112,-152 112,-2 2,-2 		"/>
		<path opacity="0.7" fill="none" stroke="#FFFFFF" stroke-width="2" stroke-miterlimit="10" d="M30.5-2c0,0.552-0.447,1-1,1
			s-1-0.448-1-1s0.447-1,1-1S30.5-2.552,30.5-2z"/>
		<path opacity="0.7" fill="none" stroke="#FFFFFF" stroke-width="2" stroke-miterlimit="10" d="M85.5-2c0,0.552-0.447,1-1,1
			s-1-0.448-1-1s0.447-1,1-1S85.5-2.552,85.5-2z"/>
		<path opacity="0.7" fill="none" stroke="#FFFFFF" stroke-width="2" stroke-miterlimit="10" d="M3-77c0,0.552-0.447,1-1,1
			s-1-0.448-1-1s0.447-1,1-1S3-77.552,3-77z"/>
		<path opacity="0.7" fill="none" stroke="#FFFFFF" stroke-width="2" stroke-miterlimit="10" d="M58-77c0,0.552-0.447,1-1,1
			s-1-0.448-1-1s0.447-1,1-1S58-77.552,58-77z"/>
		<path opacity="0.7" fill="none" stroke="#FFFFFF" stroke-width="2" stroke-miterlimit="10" d="M113-77c0,0.552-0.447,1-1,1
			s-1-0.448-1-1s0.447-1,1-1S113-77.552,113-77z"/>
		<path opacity="0.7" fill="none" stroke="#FFFFFF" stroke-width="2" stroke-miterlimit="10" d="M30.5-152c0,0.552-0.447,1-1,1
			s-1-0.448-1-1s0.447-1,1-1S30.5-152.552,30.5-152z"/>
		<path opacity="0.7" fill="none" stroke="#FFFFFF" stroke-width="2" stroke-miterlimit="10" d="M85.5-152c0,0.552-0.447,1-1,1
			s-1-0.448-1-1s0.447-1,1-1S85.5-152.552,85.5-152z"/>
	</g>
</pattern>
<g id="Layer_1">
	
		<line opacity="0.5" fill="none" stroke="#000000" stroke-width="2" stroke-miterlimit="10" x1="2430.797" y1="520.199" x2="2436.797" y2="5757.353"/>
	
		<line opacity="0.6" fill="none" stroke="#FFFFFF" stroke-width="2" stroke-miterlimit="10" x1="2472.872" y1="5787.422" x2="2318.244" y2="5896.063"/>
	
		<line opacity="0.6" fill="none" stroke="#FFFFFF" stroke-width="2" stroke-miterlimit="10" x1="2515.833" y1="5796.931" x2="2361.205" y2="5905.573"/>
	
		<line opacity="0.6" fill="none" stroke="#FFFFFF" stroke-width="2" stroke-miterlimit="10" x1="2555.327" y1="5812.842" x2="2400.699" y2="5921.486"/>
	<pattern  id="SVGID_1_" xlink:href="#Dot_grid_hex" patternTransform="matrix(1 0 0 1 21 0)">
	</pattern>
	<pattern  id="SVGID_2_" xlink:href="#Dot_grid_hex" patternTransform="matrix(1 0 0 1 21 0)">
	</pattern>
	<rect x="30.5" y="159.5" fill="url(#SVGID_1_)" stroke="url(#SVGID_2_)" stroke-miterlimit="10" width="668" height="634"/>
</g>
<g id="Lines" opacity="0.5">
	
		<ellipse opacity="0.8" fill="none" stroke="#FFFFFF" stroke-width="2" stroke-miterlimit="10" cx="1313.55" cy="760.575" rx="39.608" ry="32.893"/>
	<path fill="none" stroke="#000000" stroke-width="2" stroke-miterlimit="10" d="M1209.753,799.832"/>
	<path fill="none" stroke="#000000" stroke-width="2" stroke-miterlimit="10" d="M1556.625,1138.725"/>
	
		<ellipse opacity="0.8" fill="none" stroke="#FFFFFF" stroke-width="2" stroke-miterlimit="10" cx="470.65" cy="3459.922" rx="39.608" ry="32.893"/>
	
		<ellipse opacity="0.8" fill="none" stroke="#FFFFFF" stroke-width="2" stroke-miterlimit="10" cx="404.609" cy="5255.768" rx="39.608" ry="32.893"/>
	<polyline fill="none" stroke="#000000" stroke-width="2" stroke-miterlimit="10" points="1266.594,2306.7 2294.047,2352.589 
		2122.047,3056.149 2143.049,3946.022 1544.611,3662.479 814.222,3602.908 380.637,3852.743 580.127,4721.479 421.135,5216.875 	"/>
	<polyline fill="none" stroke="#000000" stroke-width="2" stroke-miterlimit="10" points="1313.732,801.65 1315.551,944.527 
		2016.861,1050.08 2206.191,2079.677 1266.594,2306.7 327.75,2177.332 484.046,2872.325 470.879,3416.795 	"/>
	
		<ellipse opacity="0.8" fill="none" stroke="#FFFFFF" stroke-width="2" stroke-miterlimit="10" cx="344.409" cy="2800.99" rx="39.608" ry="32.893"/>
	
		<line opacity="0.6" fill="none" stroke="#FFFFFF" stroke-width="2" stroke-miterlimit="10" x1="2360.538" y1="392.705" x2="2500.031" y2="520.199"/>
	
		<line opacity="0.6" fill="none" stroke="#FFFFFF" stroke-width="2" stroke-miterlimit="10" x1="2360.538" y1="348.705" x2="2500.031" y2="476.199"/>
	
		<line opacity="0.6" fill="none" stroke="#FFFFFF" stroke-width="2" stroke-miterlimit="10" x1="2367.538" y1="306.705" x2="2507.031" y2="434.199"/>
	<polyline fill="none" stroke="#000000" stroke-width="2" stroke-miterlimit="10" points="327.722,2177.332 163.046,2453.325 
		318.444,2764.098 	"/>
</g>
<g id="circles" opacity="0.7">
	<g>
		<ellipse fill="#FFFFFF" cx="2122.047" cy="3056.148" rx="9.602" ry="7.975"/>
		<ellipse fill="#FFFFFF" cx="2206.478" cy="2080.676" rx="9.602" ry="7.974"/>
		<ellipse fill="#FFFFFF" cx="1315.551" cy="941.517" rx="9.602" ry="7.974"/>
		<ellipse fill="#FFFFFF" cx="2294.047" cy="2353.589" rx="9.602" ry="7.974"/>
		<ellipse fill="#FFFFFF" cx="2016.636" cy="1050.106" rx="9.602" ry="7.974"/>
		<ellipse fill="#FFFFFF" cx="1266.594" cy="2307.699" rx="9.602" ry="7.975"/>
		<ellipse fill="#FFFFFF" cx="2142.713" cy="3943.254" rx="9.602" ry="7.975"/>
		<ellipse fill="#FFFFFF" cx="1543.422" cy="3662.479" rx="9.602" ry="7.975"/>
		<ellipse fill="#FFFFFF" cx="814.62" cy="3602.908" rx="9.602" ry="7.975"/>
		<ellipse fill="#FFFFFF" cx="380.768" cy="3852.742" rx="9.602" ry="7.975"/>
		<ellipse fill="#FFFFFF" cx="580.304" cy="4722.609" rx="9.602" ry="7.975"/>
		<ellipse fill="#FFFFFF" cx="328.046" cy="2179.325" rx="9.602" ry="7.974"/>
		<ellipse fill="#FFFFFF" cx="163.046" cy="2453.325" rx="9.602" ry="7.974"/>
		<ellipse fill="#FFFFFF" cx="484.046" cy="2872.325" rx="9.602" ry="7.974"/>
	</g>
	<g>
		
			<ellipse fill="none" stroke="#000000" stroke-width="2" stroke-miterlimit="10" cx="2122.047" cy="3056.148" rx="9.602" ry="7.975"/>
		
			<ellipse opacity="0.5" fill="none" stroke="#000000" stroke-width="2" stroke-miterlimit="10" cx="2206.478" cy="2080.676" rx="9.602" ry="7.974"/>
		
			<ellipse fill="none" stroke="#000000" stroke-width="2" stroke-miterlimit="10" cx="1315.551" cy="941.517" rx="9.602" ry="7.974"/>
		
			<ellipse fill="none" stroke="#000000" stroke-width="2" stroke-miterlimit="10" cx="2294.047" cy="2353.589" rx="9.602" ry="7.974"/>
		
			<ellipse fill="none" stroke="#000000" stroke-width="2" stroke-miterlimit="10" cx="2016.636" cy="1050.106" rx="9.602" ry="7.974"/>
		
			<ellipse opacity="0.5" fill="none" stroke="#000000" stroke-width="2" stroke-miterlimit="10" cx="1266.594" cy="2307.699" rx="9.602" ry="7.975"/>
		
			<ellipse fill="none" stroke="#000000" stroke-width="2" stroke-miterlimit="10" cx="2142.713" cy="3943.254" rx="9.602" ry="7.975"/>
		
			<ellipse fill="none" stroke="#000000" stroke-width="2" stroke-miterlimit="10" cx="1543.422" cy="3662.479" rx="9.602" ry="7.975"/>
		
			<ellipse fill="none" stroke="#000000" stroke-width="2" stroke-miterlimit="10" cx="814.62" cy="3602.908" rx="9.602" ry="7.975"/>
		
			<ellipse fill="none" stroke="#000000" stroke-width="2" stroke-miterlimit="10" cx="380.768" cy="3852.742" rx="9.602" ry="7.975"/>
		
			<ellipse fill="none" stroke="#000000" stroke-width="2" stroke-miterlimit="10" cx="580.304" cy="4722.609" rx="9.602" ry="7.975"/>
		
			<ellipse opacity="0.5" fill="none" stroke="#000000" stroke-width="2" stroke-miterlimit="10" cx="328.046" cy="2179.325" rx="9.602" ry="7.974"/>
		
			<ellipse opacity="0.5" fill="none" stroke="#000000" stroke-width="2" stroke-miterlimit="10" cx="163.046" cy="2453.325" rx="9.602" ry="7.974"/>
		
			<ellipse opacity="0.5" fill="none" stroke="#000000" stroke-width="2" stroke-miterlimit="10" cx="484.046" cy="2872.325" rx="9.602" ry="7.974"/>
	</g>
	<g>
		
			<ellipse fill="none" stroke="#000000" stroke-width="4" stroke-miterlimit="10" cx="2122.047" cy="3056.148" rx="9.602" ry="7.975"/>
		
			<ellipse fill="none" stroke="#000000" stroke-width="4" stroke-miterlimit="10" cx="2206.478" cy="2080.676" rx="9.602" ry="7.974"/>
		
			<ellipse fill="none" stroke="#000000" stroke-width="4" stroke-miterlimit="10" cx="1315.551" cy="941.517" rx="9.602" ry="7.974"/>
		
			<ellipse fill="none" stroke="#000000" stroke-width="4" stroke-miterlimit="10" cx="2294.047" cy="2353.589" rx="9.602" ry="7.974"/>
		
			<ellipse fill="none" stroke="#000000" stroke-width="4" stroke-miterlimit="10" cx="2016.636" cy="1050.106" rx="9.602" ry="7.974"/>
		
			<ellipse fill="none" stroke="#000000" stroke-width="4" stroke-miterlimit="10" cx="1266.594" cy="2307.699" rx="9.602" ry="7.975"/>
		
			<ellipse fill="none" stroke="#000000" stroke-width="4" stroke-miterlimit="10" cx="2142.713" cy="3943.254" rx="9.602" ry="7.975"/>
		
			<ellipse fill="none" stroke="#000000" stroke-width="4" stroke-miterlimit="10" cx="1543.422" cy="3662.479" rx="9.602" ry="7.975"/>
		
			<ellipse fill="none" stroke="#000000" stroke-width="4" stroke-miterlimit="10" cx="814.62" cy="3602.908" rx="9.602" ry="7.975"/>
		
			<ellipse fill="none" stroke="#000000" stroke-width="4" stroke-miterlimit="10" cx="380.768" cy="3852.742" rx="9.602" ry="7.975"/>
		
			<ellipse fill="none" stroke="#000000" stroke-width="4" stroke-miterlimit="10" cx="580.304" cy="4722.609" rx="9.602" ry="7.975"/>
		
			<ellipse fill="none" stroke="#000000" stroke-width="4" stroke-miterlimit="10" cx="328.046" cy="2179.325" rx="9.602" ry="7.974"/>
		
			<ellipse fill="none" stroke="#000000" stroke-width="4" stroke-miterlimit="10" cx="163.046" cy="2453.325" rx="9.602" ry="7.974"/>
		
			<ellipse fill="none" stroke="#000000" stroke-width="4" stroke-miterlimit="10" cx="484.046" cy="2872.325" rx="9.602" ry="7.974"/>
	</g>
</g>
</svg>
